<svg id="svg" xmlns="http://www.w3.org/2000/svg" xmlns:xlink="http://www.w3.org/1999/xlink" width="400" height="63.888888888888886" viewBox="0, 0, 400,63.888888888888886" version="1.1"><g id="svgg"><path id="path0" d="M74.103 0.408 C 73.708 0.651,73.059 0.848,72.436 0.916 C 71.875 0.976,71.159 1.092,70.844 1.174 C 70.490 1.267,70.198 1.262,70.078 1.162 C 69.946 1.053,69.787 1.108,69.583 1.334 C 69.215 1.741,68.417 1.766,67.050 1.416 C 65.764 1.087,64.526 1.388,63.000 2.401 C 61.082 3.675,59.821 4.000,56.797 4.000 C 55.595 4.000,54.754 4.088,54.223 4.268 C 53.659 4.459,53.217 4.500,52.675 4.409 C 50.834 4.102,49.955 4.208,48.646 4.897 C 45.938 6.322,44.599 6.547,42.610 5.912 C 41.892 5.682,40.579 5.384,39.694 5.248 C 38.808 5.113,37.708 4.931,37.250 4.844 C 33.010 4.037,30.993 4.518,29.743 6.633 C 29.221 7.518,28.381 7.917,27.140 7.871 C 26.237 7.837,25.723 7.936,24.390 8.399 C 23.138 8.834,22.369 8.991,21.144 9.062 C 20.261 9.113,19.211 9.277,18.811 9.427 C 17.407 9.951,16.739 10.132,15.512 10.319 C 14.057 10.542,12.901 11.145,11.890 12.208 C 11.419 12.703,10.965 12.997,10.473 13.125 C 10.076 13.229,9.340 13.431,8.839 13.574 C 8.337 13.716,7.391 13.833,6.735 13.833 C 6.079 13.833,5.231 13.943,4.851 14.077 C 4.073 14.352,3.975 14.328,2.692 13.556 C 1.955 13.112,1.592 13.000,0.885 13.000 L 0.000 13.000 -0.000 38.316 C -0.000 61.246,0.025 63.641,0.264 63.732 C 1.001 64.015,396.717 63.837,397.728 63.553 C 398.441 63.353,398.910 63.090,399.364 62.636 L 400.000 62.000 400.000 45.328 C 400.000 30.657,399.969 28.582,399.742 28.039 C 398.952 26.148,396.800 25.473,394.645 26.440 C 393.689 26.869,393.632 26.874,392.413 26.666 C 391.403 26.493,390.882 26.492,389.700 26.662 C 388.299 26.863,388.170 26.853,386.638 26.436 C 384.224 25.778,381.667 26.197,379.675 27.577 C 379.191 27.913,378.862 28.000,378.074 28.002 C 377.529 28.003,376.671 28.115,376.167 28.250 C 374.629 28.663,374.115 28.587,372.607 27.721 C 369.260 25.800,369.178 25.791,366.453 26.989 L 364.583 27.811 362.250 27.765 L 359.917 27.719 358.917 27.103 C 358.367 26.764,357.167 26.043,356.250 25.501 C 354.538 24.488,354.043 24.092,352.955 22.866 C 351.667 21.415,349.686 20.945,347.833 21.651 C 346.651 22.101,346.568 22.095,345.892 21.501 C 344.344 20.142,339.322 19.132,337.167 19.747 C 335.362 20.262,335.113 20.256,334.090 19.670 C 332.903 18.992,331.724 18.866,329.965 19.233 C 328.175 19.605,326.118 19.580,324.807 19.169 C 323.510 18.762,322.553 18.747,321.389 19.114 C 320.526 19.386,320.473 19.384,319.625 19.038 C 318.041 18.393,316.543 18.136,315.167 18.274 C 313.575 18.433,312.744 18.382,312.182 18.091 C 311.936 17.964,311.256 17.736,310.671 17.585 C 309.301 17.230,308.015 16.591,307.549 16.035 L 307.181 15.596 303.603 15.637 C 299.943 15.680,299.446 15.748,297.462 16.481 C 296.876 16.698,296.115 16.833,295.487 16.833 C 294.017 16.833,292.255 17.621,290.993 18.843 C 290.099 19.708,289.947 19.788,288.662 20.064 C 287.906 20.227,286.904 20.535,286.435 20.749 C 285.967 20.963,285.273 21.220,284.894 21.320 C 284.514 21.420,283.772 21.838,283.243 22.248 C 282.238 23.029,282.016 23.097,280.034 23.232 C 278.826 23.315,278.821 23.313,279.201 23.003 C 279.713 22.584,279.423 22.293,278.564 22.364 C 277.945 22.414,277.913 22.446,277.833 23.083 C 277.787 23.450,277.675 23.747,277.583 23.742 C 277.492 23.738,276.929 23.676,276.333 23.604 C 275.483 23.501,274.873 23.551,273.500 23.835 C 271.443 24.260,270.559 24.205,269.309 23.571 C 268.493 23.157,268.229 23.117,265.838 23.041 C 263.525 22.968,263.155 22.914,262.356 22.542 C 260.977 21.898,256.551 22.032,255.167 22.759 C 254.275 23.227,254.181 23.241,251.734 23.245 C 250.148 23.248,249.132 23.318,248.984 23.435 C 248.169 24.079,247.250 23.814,247.250 22.935 C 247.250 21.885,246.837 21.784,246.013 22.634 C 245.639 23.019,245.231 23.333,245.106 23.333 C 243.870 23.333,240.762 22.261,240.906 21.884 C 241.024 21.576,240.401 20.985,240.086 21.105 C 239.945 21.159,239.784 21.390,239.727 21.617 C 239.597 22.134,239.092 22.087,237.504 21.414 C 236.510 20.993,236.314 20.965,235.004 21.066 C 233.368 21.192,232.457 20.884,229.581 19.238 C 228.755 18.765,227.555 18.113,226.915 17.790 C 226.274 17.467,225.352 16.934,224.866 16.607 C 223.743 15.849,223.077 15.669,221.401 15.668 C 220.257 15.667,220.005 15.615,219.745 15.328 C 219.117 14.634,218.373 14.326,216.890 14.147 C 215.945 14.033,215.011 13.793,214.286 13.476 C 213.121 12.968,211.269 12.809,209.773 13.090 C 209.338 13.172,208.857 13.057,207.727 12.604 C 206.915 12.278,205.753 11.933,205.146 11.839 C 204.538 11.744,203.776 11.556,203.451 11.420 C 203.127 11.285,201.974 11.095,200.889 10.997 C 199.804 10.900,198.817 10.786,198.696 10.744 C 197.927 10.477,195.114 11.286,194.085 12.070 C 193.016 12.886,190.567 13.357,189.036 13.041 C 187.360 12.694,184.040 13.077,182.083 13.843 C 180.215 14.575,179.420 14.614,177.796 14.057 C 176.481 13.605,176.299 13.586,173.888 13.634 L 171.360 13.684 169.990 12.995 C 169.236 12.616,168.147 12.207,167.570 12.086 C 166.992 11.966,166.108 11.672,165.605 11.434 C 163.767 10.564,162.183 10.478,160.820 11.173 C 160.299 11.439,160.088 11.475,159.911 11.329 C 159.635 11.099,159.277 11.278,159.395 11.586 C 159.534 11.948,158.983 12.029,158.538 11.712 C 157.178 10.744,156.923 10.687,153.917 10.675 C 150.937 10.664,150.213 10.536,148.260 9.679 C 147.430 9.315,144.760 9.215,144.559 9.540 C 144.409 9.782,143.703 9.664,142.735 9.236 C 141.691 8.775,140.900 8.704,139.183 8.918 C 138.257 9.033,138.087 9.012,137.899 8.754 C 137.755 8.557,137.558 8.490,137.313 8.554 C 136.749 8.701,135.755 7.930,134.417 6.307 C 133.855 5.627,133.062 5.337,131.750 5.333 C 131.227 5.331,130.600 5.183,130.066 4.934 C 128.959 4.419,127.752 4.167,126.367 4.164 C 125.753 4.163,124.950 4.054,124.583 3.921 C 124.217 3.789,123.670 3.678,123.368 3.674 C 122.926 3.668,122.667 3.501,122.035 2.816 C 120.574 1.229,119.581 1.044,111.917 0.930 C 109.049 0.887,108.429 0.801,107.456 0.308 C 106.896 0.025,95.656 -0.068,90.083 0.164 C 89.808 0.175,88.857 0.134,87.969 0.073 C 86.570 -0.024,86.191 0.011,85.135 0.333 C 84.156 0.631,83.693 0.684,82.777 0.600 C 82.150 0.542,80.650 0.453,79.443 0.401 C 78.237 0.350,77.033 0.238,76.767 0.154 C 75.896 -0.123,74.797 -0.018,74.103 0.408 " stroke="none" fill="black" fill-rule="evenodd"></path></g></svg>