<svg id="svg" version="1.1" xmlns="http://www.w3.org/2000/svg" xmlns:xlink="http://www.w3.org/1999/xlink" width="400" height="81.10599078341014" viewBox="0, 0, 400,81.10599078341014"><g id="svgg"><path id="path1" d="M366.417 0.108 C 366.233 0.160,365.650 0.384,365.120 0.606 C 364.217 0.983,363.973 1.007,361.245 0.987 C 358.566 0.968,358.288 0.994,357.741 1.316 C 357.033 1.734,356.739 1.749,355.925 1.409 C 355.252 1.128,354.828 1.289,351.839 2.955 C 350.863 3.500,350.598 3.567,349.006 3.676 C 348.040 3.742,346.425 3.992,345.417 4.230 C 342.205 4.990,338.416 4.731,336.868 3.647 C 334.892 2.263,332.621 2.336,330.821 3.843 C 329.976 4.551,329.929 4.567,328.438 4.668 C 326.802 4.778,326.475 4.900,325.358 5.810 C 324.658 6.381,324.572 6.405,322.858 6.513 C 320.787 6.644,320.348 6.790,319.404 7.660 C 318.641 8.364,317.516 8.635,316.133 8.450 C 315.760 8.400,315.333 8.421,315.186 8.496 C 312.872 9.674,311.975 9.893,308.417 10.142 C 306.269 10.292,306.168 10.318,304.941 11.038 C 304.322 11.400,304.079 11.468,303.907 11.325 C 303.630 11.096,303.278 11.282,303.398 11.594 C 303.454 11.741,302.997 12.150,302.113 12.745 C 301.358 13.252,300.494 13.892,300.194 14.166 C 299.152 15.118,297.681 15.601,295.430 15.732 C 293.788 15.827,292.126 16.374,291.336 17.077 C 291.197 17.201,290.746 17.388,290.333 17.493 C 289.921 17.597,289.246 17.820,288.833 17.987 C 288.356 18.181,287.448 18.325,286.333 18.385 C 284.800 18.467,284.377 18.562,282.917 19.148 C 278.914 20.755,276.624 20.765,274.083 19.188 C 272.935 18.474,268.499 18.193,267.699 18.782 C 267.395 19.006,266.862 19.145,266.047 19.213 C 265.385 19.268,264.485 19.473,264.047 19.668 C 263.602 19.866,262.588 20.094,261.750 20.184 C 260.250 20.345,258.875 20.860,257.583 21.742 C 256.465 22.506,250.250 22.149,249.076 21.253 C 247.741 20.234,246.281 20.333,244.536 21.562 L 243.823 22.064 242.870 21.574 C 241.586 20.913,240.182 20.906,238.768 21.553 C 237.606 22.086,237.725 22.074,237.618 21.667 C 237.517 21.278,237.000 21.213,237.000 21.589 C 237.000 21.729,237.124 21.891,237.276 21.950 C 237.632 22.086,236.565 22.433,234.757 22.767 C 233.426 23.014,232.686 23.405,231.897 24.277 C 231.424 24.800,231.006 24.768,230.231 24.150 C 228.227 22.553,226.407 22.527,223.466 24.053 C 222.365 24.624,221.789 24.816,220.898 24.905 C 220.267 24.969,219.314 25.140,218.782 25.285 C 217.509 25.633,215.642 25.387,213.950 24.649 C 212.804 24.150,212.615 24.121,209.741 24.003 L 206.733 23.880 205.267 23.106 C 203.235 22.035,202.318 22.095,200.881 23.394 C 200.520 23.719,200.043 24.056,199.821 24.141 C 199.464 24.278,198.265 25.138,196.989 26.172 C 196.711 26.398,196.130 26.578,195.323 26.690 C 194.641 26.785,193.687 27.043,193.203 27.264 C 192.719 27.486,192.224 27.667,192.102 27.667 C 191.980 27.667,191.461 27.890,190.949 28.164 C 190.387 28.464,189.534 28.735,188.800 28.848 C 188.131 28.951,187.507 29.096,187.414 29.172 C 187.322 29.247,186.872 29.399,186.414 29.510 C 185.957 29.621,185.324 29.867,185.007 30.057 C 184.547 30.333,184.043 30.422,182.507 30.498 C 180.478 30.598,180.423 30.616,178.020 31.992 C 176.618 32.795,175.145 32.638,173.996 31.564 C 171.826 29.534,169.597 28.756,166.672 29.009 C 164.461 29.201,163.850 29.048,162.843 28.052 C 161.735 26.956,160.984 26.624,159.500 26.573 C 158.665 26.544,158.001 26.416,157.500 26.185 C 156.364 25.663,154.486 25.697,153.403 26.259 C 152.381 26.789,151.810 26.799,150.750 26.305 C 149.765 25.846,145.458 25.802,144.116 26.237 C 142.807 26.661,142.611 26.661,141.750 26.242 C 140.815 25.787,138.837 25.675,137.843 26.021 C 136.910 26.347,135.030 25.800,134.228 24.970 C 133.335 24.048,131.983 23.400,130.718 23.290 C 130.114 23.237,129.285 23.014,128.718 22.750 C 128.004 22.418,127.346 22.268,126.210 22.178 C 125.231 22.100,124.564 21.964,124.377 21.804 C 124.216 21.665,123.558 21.302,122.917 20.997 L 121.750 20.443 118.417 20.416 C 114.592 20.386,114.055 20.232,112.247 18.650 C 111.132 17.674,110.435 17.433,109.051 17.544 C 108.012 17.627,107.968 17.614,107.367 17.047 C 106.124 15.874,105.893 15.821,101.696 15.744 C 95.717 15.634,94.362 15.532,93.504 15.126 C 92.970 14.873,92.285 14.745,91.088 14.674 C 89.177 14.561,89.021 14.485,88.044 13.188 C 87.656 12.672,86.944 11.790,86.461 11.227 C 85.978 10.664,85.347 9.910,85.059 9.550 C 84.164 8.436,82.107 8.146,80.014 8.839 C 78.712 9.270,77.383 9.216,75.917 8.672 C 74.864 8.282,74.552 8.279,71.083 8.636 C 69.746 8.773,69.415 8.908,66.899 10.342 C 66.249 10.712,66.168 10.720,65.282 10.508 C 64.726 10.374,63.924 10.320,63.299 10.374 C 62.722 10.423,61.725 10.370,61.083 10.255 C 60.442 10.141,58.717 10.034,57.250 10.018 C 54.830 9.992,54.560 9.960,54.333 9.667 C 54.196 9.490,53.933 9.345,53.750 9.345 C 53.567 9.346,52.877 9.296,52.217 9.235 C 51.099 9.131,50.945 9.158,49.936 9.645 C 49.341 9.932,48.714 10.167,48.543 10.167 C 48.372 10.167,47.861 10.351,47.408 10.577 C 45.958 11.298,45.239 11.493,44.635 11.329 C 43.662 11.066,40.957 10.783,39.583 10.801 C 29.148 10.939,28.606 10.962,27.417 11.318 C 25.737 11.821,24.952 11.773,20.542 10.901 C 20.335 10.860,20.167 10.720,20.167 10.590 C 20.167 10.231,19.885 10.131,19.519 10.360 C 19.066 10.643,15.566 10.093,14.418 9.559 C 13.959 9.345,13.462 9.169,13.313 9.168 C 13.164 9.167,12.468 8.979,11.766 8.750 C 10.666 8.391,10.174 8.332,8.203 8.323 C 5.891 8.313,5.045 8.221,3.645 7.826 C 2.950 7.630,2.731 7.647,1.437 7.995 L 0.000 8.381 0.000 44.690 L 0.000 81.000 199.392 81.000 L 398.784 81.000 399.350 80.618 L 399.917 80.237 399.959 43.004 L 400.001 5.772 399.625 5.369 C 398.752 4.430,396.065 3.581,395.509 4.067 C 395.005 4.509,394.506 4.530,393.313 4.160 C 391.709 3.664,390.452 3.752,389.505 4.426 C 389.126 4.696,388.716 4.986,388.594 5.070 C 388.448 5.171,387.901 5.068,386.997 4.769 C 385.784 4.368,385.469 4.328,384.336 4.426 L 383.051 4.539 382.237 3.780 C 381.698 3.278,381.168 2.957,380.670 2.832 C 379.882 2.633,377.939 1.694,377.083 1.098 C 376.660 0.803,376.329 0.749,374.917 0.742 C 373.690 0.737,373.080 0.657,372.605 0.440 C 371.949 0.140,367.203 -0.114,366.417 0.108 M314.413 7.672 C 314.349 7.777,314.374 7.941,314.470 8.037 C 314.694 8.261,315.216 8.065,315.125 7.792 C 315.032 7.513,314.561 7.434,314.413 7.672 " stroke="none"  fill="" fill-rule="evenodd"></path></g></svg>