<svg id="svg" xmlns="http://www.w3.org/2000/svg" xmlns:xlink="http://www.w3.org/1999/xlink" width="400" height="54.05405405405405" viewBox="0, 0, 400,54.05405405405405" version="1.1"><g id="svgg"><path id="path0" d="M395.092 0.463 C 394.985 0.947,394.961 0.960,394.552 0.748 C 394.317 0.626,394.002 0.577,393.853 0.638 C 393.204 0.905,392.492 1.428,392.405 1.703 C 392.322 1.964,392.088 2.000,390.447 2.003 C 387.566 2.007,385.667 2.577,385.667 3.437 C 385.667 3.722,385.573 3.833,385.333 3.833 C 385.150 3.833,385.000 3.728,385.000 3.600 C 385.000 2.939,382.035 2.739,381.593 3.370 C 381.450 3.574,381.333 3.661,381.333 3.563 C 381.333 3.368,380.254 3.000,379.681 3.000 C 379.481 3.000,379.152 3.178,378.950 3.395 C 378.630 3.741,378.419 3.794,377.293 3.816 C 375.849 3.843,375.167 4.035,375.167 4.413 C 375.167 4.795,374.839 4.718,374.470 4.250 C 374.192 3.896,374.005 3.833,373.232 3.833 C 372.689 3.833,372.162 3.729,371.926 3.574 C 371.555 3.331,371.506 3.340,371.140 3.727 C 370.706 4.186,368.833 4.070,368.833 3.585 C 368.833 3.054,367.011 2.989,366.499 3.501 C 366.216 3.784,366.027 3.820,365.290 3.733 C 364.537 3.645,364.373 3.679,364.099 3.982 C 363.925 4.175,363.647 4.333,363.482 4.333 C 363.318 4.333,363.106 4.465,363.011 4.625 C 362.841 4.915,362.635 4.786,362.455 4.274 C 362.394 4.101,359.861 3.675,358.869 3.670 C 358.110 3.666,357.333 4.054,357.333 4.436 C 357.333 4.800,356.720 4.705,356.290 4.275 C 355.508 3.493,352.363 3.627,352.045 4.457 C 351.915 4.796,348.396 4.749,348.204 4.405 C 347.839 3.753,345.871 3.736,345.418 4.381 C 345.224 4.659,345.126 4.692,344.968 4.535 C 344.590 4.157,343.975 4.313,343.385 4.938 L 342.815 5.543 341.616 5.430 C 340.219 5.298,340.140 5.298,339.219 5.432 C 338.823 5.489,338.251 5.444,337.897 5.327 C 337.312 5.134,337.250 5.147,336.928 5.534 C 336.738 5.762,336.445 5.998,336.276 6.058 C 336.107 6.119,335.931 6.313,335.885 6.489 C 335.785 6.868,334.828 7.080,333.875 6.933 C 333.531 6.880,332.350 6.898,331.250 6.974 C 329.291 7.108,329.241 7.103,328.821 6.719 C 328.358 6.296,327.833 6.552,327.833 7.201 C 327.833 7.343,327.721 7.553,327.583 7.667 C 327.446 7.781,327.333 7.969,327.333 8.086 C 327.333 8.202,327.151 8.343,326.928 8.399 C 326.705 8.455,326.474 8.654,326.414 8.841 C 326.312 9.162,326.208 9.177,324.611 9.101 C 323.298 9.038,322.844 9.074,322.593 9.260 C 322.224 9.534,321.500 9.583,321.500 9.333 C 321.500 8.961,320.837 9.177,320.735 9.583 C 320.666 9.857,320.508 10.006,320.274 10.017 C 320.077 10.026,319.619 10.061,319.255 10.093 C 318.667 10.146,318.538 10.087,318.109 9.566 L 317.626 8.980 317.230 9.352 C 317.012 9.557,316.833 9.834,316.833 9.967 C 316.833 10.155,316.689 10.186,316.192 10.107 C 315.544 10.003,315.167 10.355,315.167 11.063 C 315.167 11.181,314.980 11.377,314.753 11.499 C 314.525 11.620,314.295 11.858,314.242 12.027 C 314.103 12.465,313.794 12.407,313.236 11.838 C 312.969 11.566,312.656 11.341,312.542 11.338 C 312.427 11.335,312.333 11.195,312.333 11.026 C 312.333 9.819,309.525 9.999,308.834 11.250 C 308.500 11.853,305.927 12.126,305.627 11.591 C 305.548 11.449,305.356 11.332,305.200 11.331 C 305.044 11.330,304.729 11.232,304.500 11.113 C 304.129 10.921,303.999 10.949,303.315 11.366 C 302.378 11.936,300.824 12.081,301.499 11.535 C 301.846 11.253,301.851 11.222,301.578 10.995 C 301.320 10.781,301.260 10.796,301.040 11.127 C 300.846 11.419,300.634 11.500,300.057 11.500 C 299.391 11.500,299.289 11.556,298.972 12.094 C 298.724 12.514,298.569 12.636,298.444 12.511 C 298.065 12.132,296.259 12.297,295.833 12.750 C 295.296 13.322,293.962 13.346,293.375 12.794 C 293.025 12.465,292.764 12.414,291.157 12.359 L 289.335 12.297 288.488 11.488 L 287.640 10.680 286.195 10.715 L 284.750 10.750 284.457 11.333 C 284.213 11.820,284.075 11.917,283.624 11.917 C 283.133 11.917,283.086 11.960,283.117 12.391 C 283.147 12.809,283.105 12.854,282.765 12.769 C 282.336 12.661,281.959 12.981,281.694 13.677 C 281.541 14.081,281.462 14.106,280.250 14.130 C 279.545 14.145,278.717 14.248,278.409 14.359 C 277.977 14.515,277.752 14.516,277.417 14.364 C 276.532 13.961,275.731 14.106,275.338 14.742 C 274.939 15.387,274.663 15.356,273.556 14.538 C 273.124 14.219,272.813 14.147,271.838 14.137 C 270.775 14.127,270.620 14.084,270.388 13.730 C 270.245 13.512,270.035 13.333,269.920 13.333 C 269.805 13.333,269.521 13.183,269.288 13.000 C 269.055 12.817,268.706 12.667,268.513 12.667 C 268.320 12.667,268.032 12.597,267.873 12.512 C 267.714 12.427,267.451 12.317,267.289 12.266 C 267.127 12.216,266.917 11.969,266.821 11.718 C 266.552 11.011,266.327 10.798,266.072 11.010 C 265.801 11.235,264.379 11.044,264.206 10.760 C 263.900 10.256,261.841 9.929,261.172 10.278 C 260.940 10.399,260.616 10.498,260.453 10.499 C 260.290 10.500,260.113 10.613,260.060 10.750 C 259.941 11.061,259.667 11.079,259.667 10.776 C 259.667 10.361,259.037 9.928,258.764 10.155 C 258.506 10.369,257.833 10.141,257.833 9.839 C 257.833 9.503,257.120 9.471,256.689 9.789 C 256.448 9.966,255.950 10.159,255.583 10.217 C 255.212 10.276,254.792 10.476,254.634 10.669 C 254.394 10.963,254.302 10.983,254.019 10.807 C 253.751 10.639,253.604 10.644,253.253 10.832 C 252.874 11.035,252.760 11.029,252.342 10.782 C 251.756 10.435,251.230 10.425,250.609 10.750 C 250.171 10.978,250.113 10.971,249.859 10.664 C 249.707 10.481,249.190 10.239,248.708 10.126 C 248.227 10.013,247.833 9.838,247.833 9.736 C 247.833 9.635,247.691 9.423,247.517 9.265 C 247.181 8.961,247.136 8.989,246.746 9.750 C 246.620 9.997,246.375 10.096,245.806 10.133 C 245.312 10.166,244.934 10.296,244.752 10.498 C 244.474 10.805,244.457 10.802,244.082 10.366 C 243.689 9.909,243.000 10.147,243.000 10.741 C 243.000 10.872,242.254 10.934,240.549 10.946 C 238.551 10.960,238.150 10.924,238.382 10.755 C 238.990 10.310,238.571 9.837,237.937 10.252 C 237.668 10.428,237.494 10.459,237.422 10.342 C 237.270 10.095,232.806 10.110,232.259 10.360 C 231.912 10.518,231.780 10.504,231.535 10.281 C 231.318 10.085,231.063 10.038,230.614 10.111 C 230.152 10.186,229.910 10.137,229.670 9.920 C 229.405 9.680,229.259 9.660,228.834 9.808 C 228.378 9.967,228.280 9.941,227.963 9.577 C 227.508 9.053,227.201 9.056,227.068 9.583 C 226.939 10.101,226.850 10.100,226.354 9.577 C 226.026 9.231,225.854 9.176,225.354 9.256 C 224.174 9.445,224.021 9.504,223.923 9.814 C 223.776 10.276,222.164 10.275,222.043 9.814 C 221.998 9.641,221.890 9.500,221.802 9.500 C 221.595 9.500,221.167 9.070,221.167 8.863 C 221.167 8.775,220.976 8.655,220.743 8.596 C 220.510 8.538,220.274 8.361,220.218 8.203 C 219.777 6.950,218.233 6.667,217.719 7.745 C 217.462 8.283,217.378 8.333,216.723 8.333 C 216.152 8.333,215.955 8.414,215.746 8.733 C 215.385 9.284,214.466 9.284,213.915 8.733 C 213.601 8.419,213.339 8.333,212.692 8.333 C 212.114 8.333,211.840 8.259,211.773 8.083 C 211.647 7.755,210.506 7.751,210.074 8.078 C 209.657 8.393,209.371 8.395,209.060 8.083 C 208.740 7.763,208.266 7.763,208.000 8.083 C 207.710 8.433,204.752 8.442,204.405 8.095 C 204.232 7.922,204.031 7.896,203.672 7.999 C 202.951 8.205,202.833 8.310,202.833 8.744 C 202.833 9.254,202.142 9.500,200.709 9.500 C 200.116 9.500,199.398 9.609,199.109 9.744 C 198.820 9.878,198.210 10.048,197.753 10.122 C 197.145 10.221,196.874 10.355,196.740 10.624 C 196.611 10.883,196.505 10.939,196.380 10.813 C 196.090 10.523,195.629 10.716,195.334 11.250 C 195.146 11.592,194.907 11.768,194.579 11.806 C 194.315 11.837,193.947 11.968,193.762 12.098 C 193.577 12.227,193.258 12.333,193.052 12.333 C 192.846 12.333,192.420 12.560,192.104 12.838 C 191.491 13.376,190.314 13.409,189.917 12.898 C 189.813 12.765,189.186 12.653,188.250 12.602 C 187.425 12.558,186.392 12.471,185.954 12.410 C 185.074 12.287,184.739 12.454,184.476 13.147 L 184.320 13.557 183.487 12.737 L 182.654 11.917 180.618 11.906 C 179.039 11.897,178.471 11.832,178.083 11.615 C 177.808 11.461,177.426 11.335,177.234 11.334 C 176.979 11.334,176.811 11.147,176.616 10.650 C 176.312 9.878,176.044 9.863,175.667 10.597 C 175.529 10.864,175.403 11.109,175.387 11.141 C 175.370 11.173,175.129 11.065,174.852 10.901 C 174.436 10.656,174.280 10.638,173.965 10.803 C 173.755 10.912,172.871 11.035,172.000 11.076 C 169.932 11.171,169.000 11.328,169.000 11.580 C 169.000 11.911,166.680 12.047,166.217 11.744 C 165.797 11.468,164.241 11.412,164.083 11.667 C 163.874 12.005,163.338 11.827,163.083 11.333 C 162.787 10.761,162.715 10.738,162.329 11.087 C 161.957 11.424,161.638 11.274,161.333 10.619 C 161.115 10.152,161.013 10.090,160.532 10.137 C 160.228 10.167,159.891 10.120,159.782 10.034 C 158.961 9.387,158.072 9.069,157.667 9.279 C 157.438 9.398,157.123 9.496,156.968 9.498 C 156.813 9.499,156.585 9.644,156.461 9.820 C 156.262 10.104,155.953 10.152,153.743 10.234 C 149.466 10.395,149.491 10.392,149.254 10.717 C 149.052 10.993,148.919 11.002,147.571 10.822 C 146.359 10.661,146.077 10.667,145.929 10.855 C 145.829 10.983,145.538 11.059,145.267 11.028 C 145.001 10.998,144.448 11.057,144.038 11.161 C 143.417 11.317,143.246 11.306,143.011 11.093 C 142.650 10.767,142.333 11.041,142.333 11.681 C 142.333 12.175,142.019 12.327,140.987 12.331 C 140.325 12.334,139.590 12.941,139.749 13.355 C 139.827 13.557,139.579 13.585,138.195 13.529 C 136.721 13.470,136.514 13.498,136.232 13.793 C 135.413 14.649,132.006 14.472,131.167 13.531 C 130.245 12.497,128.914 11.966,128.583 12.500 C 128.514 12.612,128.376 12.612,128.168 12.500 C 127.424 12.103,126.167 12.634,126.167 13.345 C 126.167 13.847,125.923 13.725,125.562 13.042 L 125.232 12.417 124.158 12.445 C 123.567 12.460,123.008 12.482,122.917 12.492 C 122.296 12.565,119.762 12.204,119.706 12.035 C 119.629 11.804,118.167 11.752,118.167 11.980 C 118.167 12.060,117.939 12.221,117.660 12.336 C 117.382 12.451,117.079 12.685,116.988 12.856 C 116.896 13.027,116.683 13.167,116.515 13.167 C 116.138 13.167,115.896 13.442,115.745 14.043 C 115.594 14.645,115.170 14.628,114.750 14.001 C 114.118 13.058,111.373 13.216,111.960 14.162 C 112.155 14.477,112.130 14.500,111.585 14.500 C 111.086 14.500,111.000 14.444,111.000 14.117 C 111.000 13.317,110.127 13.038,109.809 13.736 C 109.643 14.102,109.235 14.325,108.722 14.331 C 108.614 14.332,108.478 14.112,108.418 13.841 C 108.213 12.905,107.084 12.968,106.904 13.926 C 106.797 14.497,106.613 14.651,106.417 14.333 C 106.183 13.955,105.510 14.170,105.116 14.749 C 104.899 15.069,104.678 15.289,104.625 15.236 C 104.573 15.184,103.536 15.225,102.322 15.328 C 100.786 15.458,100.062 15.462,99.941 15.341 C 99.526 14.926,97.838 15.548,97.834 16.117 C 97.834 16.228,97.552 16.366,97.208 16.424 C 96.196 16.594,96.022 16.668,95.927 16.968 C 95.836 17.255,95.600 17.408,94.458 17.922 C 94.115 18.076,93.833 18.262,93.833 18.335 C 93.833 18.545,92.203 18.879,91.743 18.763 C 91.427 18.684,91.230 18.760,90.935 19.079 C 90.721 19.311,90.470 19.500,90.379 19.500 C 90.288 19.500,89.946 19.682,89.619 19.904 C 89.292 20.125,88.852 20.332,88.641 20.362 C 88.431 20.392,88.179 20.567,88.083 20.750 C 87.788 21.311,86.883 22.167,86.584 22.167 C 86.429 22.167,86.261 22.322,86.212 22.513 C 86.117 22.874,85.559 23.167,84.963 23.167 C 84.535 23.167,83.500 23.931,83.500 24.247 C 83.500 24.556,82.873 24.740,82.597 24.512 C 82.435 24.377,82.326 24.391,82.181 24.566 C 82.046 24.728,82.039 24.838,82.159 24.912 C 82.687 25.239,82.224 25.350,80.708 25.260 C 77.269 25.056,74.917 25.221,74.917 25.667 C 74.917 25.857,75.166 25.929,75.958 25.966 C 77.552 26.042,77.203 26.333,75.518 26.333 C 74.354 26.333,74.015 26.280,73.940 26.083 C 73.782 25.672,71.417 25.732,71.053 26.157 C 70.745 26.517,69.960 26.469,69.487 26.060 C 69.295 25.895,68.656 25.833,67.118 25.833 L 65.012 25.833 64.607 26.429 C 64.370 26.779,64.156 26.951,64.091 26.846 C 63.818 26.404,62.882 26.656,62.266 27.337 L 61.661 28.008 61.001 27.315 C 60.410 26.693,60.282 26.631,59.754 26.717 C 59.431 26.769,59.167 26.744,59.167 26.659 C 59.167 26.575,58.998 26.463,58.792 26.411 C 58.585 26.358,58.213 26.029,57.964 25.680 C 57.578 25.140,57.396 25.032,56.748 24.959 C 56.329 24.911,55.853 24.752,55.691 24.605 C 55.478 24.412,55.345 24.388,55.214 24.520 C 54.834 24.899,53.759 24.530,53.421 23.904 C 53.250 23.586,52.941 23.283,52.734 23.231 C 52.527 23.179,52.238 23.004,52.091 22.842 C 51.927 22.661,51.673 22.577,51.429 22.623 C 50.903 22.724,50.649 21.827,51.081 21.395 C 51.529 20.947,51.109 20.697,50.507 21.053 C 49.729 21.513,48.697 21.184,48.198 20.318 C 47.925 19.844,47.672 19.626,47.311 19.554 C 47.032 19.498,46.766 19.351,46.718 19.226 C 46.603 18.927,46.258 18.939,46.000 19.250 C 45.698 19.614,45.630 19.583,44.689 18.658 C 43.628 17.613,42.437 17.219,41.247 17.518 C 40.708 17.654,40.370 17.654,39.981 17.518 C 39.689 17.417,39.245 17.333,38.995 17.333 C 38.690 17.333,38.512 17.230,38.458 17.023 C 38.412 16.846,37.943 16.506,37.366 16.232 C 36.811 15.967,36.323 15.629,36.283 15.481 C 36.198 15.168,35.272 14.668,34.766 14.663 C 34.537 14.661,34.331 14.474,34.167 14.121 C 33.863 13.468,33.653 13.448,33.366 14.046 C 33.094 14.614,32.068 14.740,32.245 14.183 C 32.511 13.343,29.516 12.675,28.780 13.411 C 28.438 13.752,26.564 13.741,26.848 13.399 C 27.119 13.072,26.753 12.667,26.187 12.667 C 25.945 12.667,25.505 12.597,25.207 12.512 C 24.799 12.395,24.609 12.415,24.429 12.595 C 24.096 12.927,24.064 12.915,23.352 12.167 C 22.586 11.361,21.707 11.248,21.044 11.870 C 20.395 12.480,18.473 12.523,18.205 11.934 C 17.988 11.459,15.801 11.266,15.382 11.685 C 15.247 11.820,15.147 11.775,15.010 11.518 C 14.906 11.325,14.716 11.167,14.587 11.167 C 14.457 11.167,14.253 10.962,14.133 10.711 C 13.976 10.384,13.750 10.228,13.332 10.158 C 13.012 10.105,12.591 9.961,12.398 9.838 C 11.979 9.573,10.623 10.126,10.325 10.683 C 9.989 11.309,7.560 10.960,7.117 10.222 C 6.935 9.919,6.661 9.943,6.411 10.286 C 6.218 10.550,6.121 10.553,5.142 10.326 C 3.691 9.988,0.900 10.120,0.593 10.542 C 0.476 10.702,0.294 10.833,0.190 10.833 C 0.049 10.833,0.000 16.076,0.000 31.232 L 0.000 51.630 0.699 51.910 C 1.083 52.064,1.552 52.369,1.741 52.589 C 2.390 53.345,3.157 53.468,3.656 52.897 C 4.104 52.383,6.205 52.382,6.535 52.896 C 6.616 53.023,6.817 52.983,7.184 52.767 C 7.808 52.398,10.781 52.478,11.023 52.871 C 11.123 53.033,11.268 53.012,11.667 52.776 C 12.142 52.496,12.214 52.493,12.585 52.736 C 13.152 53.107,15.684 53.105,16.251 52.734 C 16.629 52.486,16.696 52.491,17.204 52.798 C 18.154 53.373,18.484 53.407,18.945 52.974 C 19.439 52.510,25.821 52.334,26.187 52.774 C 26.582 53.250,27.499 53.392,27.888 53.036 C 28.493 52.482,30.145 52.434,30.631 52.955 C 30.897 53.240,31.099 53.325,31.298 53.237 C 31.455 53.167,32.517 53.077,33.658 53.037 C 35.125 52.985,35.846 52.890,36.117 52.713 C 36.462 52.487,36.544 52.490,36.934 52.746 C 37.249 52.952,37.419 52.981,37.551 52.849 C 37.788 52.612,38.714 52.614,38.953 52.853 C 39.089 52.989,39.240 52.967,39.523 52.769 C 40.003 52.433,40.998 52.421,41.426 52.745 C 41.855 53.069,42.747 53.064,43.248 52.736 C 43.651 52.472,44.333 52.540,44.333 52.845 C 44.333 53.092,45.550 53.014,45.907 52.745 C 46.414 52.361,47.172 52.443,47.688 52.937 C 48.099 53.331,48.197 53.355,48.680 53.187 C 48.975 53.084,49.384 53.000,49.589 53.000 C 49.794 53.000,50.175 52.889,50.436 52.754 C 50.921 52.503,52.058 52.562,52.436 52.858 C 52.547 52.945,52.815 52.903,53.103 52.753 C 53.792 52.393,54.370 52.440,55.283 52.928 C 55.946 53.283,56.227 53.340,56.917 53.261 C 57.375 53.209,58.294 53.121,58.958 53.065 C 59.623 53.009,60.167 52.897,60.167 52.815 C 60.167 52.610,61.228 52.628,61.436 52.836 C 61.550 52.950,61.779 52.919,62.142 52.737 C 62.633 52.492,62.713 52.492,63.084 52.735 C 63.562 53.048,64.516 53.084,64.801 52.799 C 65.121 52.479,71.630 52.462,72.136 52.780 C 72.442 52.972,72.573 52.980,72.766 52.820 C 73.138 52.512,76.343 52.472,76.683 52.772 C 76.910 52.971,77.016 52.972,77.390 52.778 C 78.015 52.454,81.968 52.512,82.177 52.848 C 82.296 53.040,82.385 53.045,82.659 52.875 C 83.226 52.524,84.445 52.604,84.548 53.000 C 84.682 53.510,86.045 53.460,87.086 52.907 C 88.309 52.257,89.167 52.438,89.167 53.348 C 89.167 53.932,89.210 54.000,89.583 54.000 C 89.958 54.000,90.000 53.933,90.000 53.337 C 90.000 52.429,91.820 52.139,92.985 52.861 C 93.278 53.043,93.368 53.044,93.478 52.867 C 93.686 52.533,94.187 52.566,95.019 52.969 C 95.830 53.361,96.656 53.332,97.017 52.897 C 97.236 52.632,98.263 52.585,98.417 52.833 C 98.554 53.056,103.279 53.056,103.417 52.833 C 103.551 52.616,105.449 52.616,105.583 52.833 C 105.755 53.112,108.377 53.036,108.980 52.735 C 109.465 52.493,109.548 52.493,109.913 52.732 C 110.280 52.973,110.356 52.971,110.803 52.715 C 111.261 52.452,111.319 52.452,111.723 52.717 C 112.203 53.032,114.074 53.118,114.250 52.833 C 114.384 52.616,115.500 52.616,115.500 52.833 C 115.500 53.064,117.789 53.050,117.866 52.818 C 117.957 52.545,122.419 52.521,122.691 52.792 C 122.978 53.077,123.676 53.053,124.314 52.735 C 124.800 52.492,124.880 52.492,125.250 52.735 C 125.767 53.074,127.303 53.083,127.939 52.751 C 128.580 52.417,131.943 52.398,132.421 52.726 C 132.602 52.850,133.050 52.996,133.417 53.050 C 133.783 53.105,134.243 53.197,134.438 53.256 C 134.694 53.332,134.905 53.241,135.190 52.934 C 135.566 52.529,135.612 52.520,136.066 52.755 C 136.388 52.922,136.610 52.950,136.743 52.839 C 137.029 52.602,138.611 52.580,138.887 52.809 C 139.068 52.959,139.231 52.947,139.599 52.756 C 140.087 52.503,141.223 52.560,141.603 52.858 C 141.714 52.945,141.982 52.903,142.269 52.753 C 142.887 52.431,144.445 52.430,145.061 52.751 C 145.585 53.025,146.667 53.090,146.667 52.848 C 146.667 52.536,149.129 52.437,149.577 52.730 C 150.068 53.052,152.651 53.115,152.954 52.813 C 153.231 52.536,158.105 52.516,158.632 52.789 C 159.115 53.040,160.167 53.070,160.167 52.833 C 160.167 52.597,162.224 52.624,162.463 52.863 C 162.613 53.013,162.731 52.994,162.968 52.779 C 163.350 52.433,163.728 52.422,164.000 52.750 C 164.234 53.032,168.069 53.126,168.238 52.853 C 168.405 52.582,168.975 52.535,169.403 52.757 C 169.762 52.943,169.907 52.938,170.343 52.720 C 170.997 52.394,172.947 52.478,173.173 52.842 C 173.295 53.038,173.385 53.045,173.654 52.878 C 174.267 52.499,175.288 52.432,175.759 52.740 C 176.044 52.927,176.256 52.968,176.386 52.863 C 176.788 52.538,179.600 52.442,180.183 52.733 C 180.869 53.075,184.431 53.123,184.542 52.792 C 184.656 52.447,187.738 52.399,188.249 52.734 C 188.842 53.123,192.170 53.115,192.768 52.723 C 193.176 52.456,193.205 52.462,193.602 52.890 C 194.107 53.434,194.127 53.434,194.673 52.911 C 195.411 52.204,196.500 52.469,196.500 53.355 C 196.500 53.889,196.557 54.000,196.833 54.000 C 197.017 54.000,197.167 53.899,197.167 53.776 C 197.167 53.399,197.747 53.000,198.295 53.000 C 198.580 53.000,198.854 52.934,198.904 52.853 C 199.075 52.578,199.645 52.537,200.092 52.768 C 200.612 53.038,201.435 53.074,201.583 52.833 C 201.725 52.604,202.723 52.623,202.960 52.860 C 203.093 52.993,203.219 53.000,203.368 52.881 C 203.767 52.563,206.689 52.462,207.227 52.747 C 207.831 53.067,208.314 53.067,208.955 52.748 C 209.430 52.511,209.510 52.521,210.294 52.928 C 211.030 53.310,211.202 53.339,211.772 53.181 C 212.126 53.082,212.764 53.001,213.189 53.001 C 213.614 53.000,214.177 52.888,214.439 52.751 C 215.048 52.434,215.622 52.435,216.237 52.756 C 216.571 52.930,216.778 52.956,216.895 52.838 C 217.130 52.603,218.055 52.622,218.300 52.867 C 218.456 53.022,218.544 53.022,218.700 52.867 C 218.941 52.625,220.000 52.598,220.000 52.833 C 220.000 53.086,221.066 53.033,221.604 52.753 C 222.054 52.520,222.102 52.530,222.476 52.933 C 222.927 53.419,223.385 53.385,224.169 52.805 C 224.656 52.446,226.026 52.470,226.256 52.843 C 226.386 53.053,228.453 53.045,228.583 52.833 C 228.718 52.616,230.616 52.616,230.750 52.833 C 230.927 53.121,233.786 53.039,234.253 52.733 C 234.697 52.442,238.739 52.546,238.929 52.854 C 239.080 53.098,240.276 53.020,240.500 52.750 C 240.786 52.405,241.094 52.437,241.683 52.872 C 242.290 53.321,243.359 53.346,243.826 52.924 C 244.278 52.515,247.221 52.388,247.779 52.753 C 248.128 52.983,248.208 52.981,248.583 52.735 C 249.023 52.447,250.390 52.520,250.589 52.843 C 250.744 53.094,251.808 53.025,252.250 52.735 C 252.531 52.551,253.022 52.473,253.857 52.481 C 254.518 52.487,255.151 52.415,255.264 52.321 C 255.405 52.204,255.504 52.206,255.578 52.325 C 255.638 52.421,255.832 52.500,256.011 52.500 C 256.189 52.500,256.499 52.687,256.698 52.917 C 257.208 53.503,258.214 53.503,258.599 52.917 C 258.906 52.448,259.199 52.388,259.487 52.735 C 259.618 52.893,260.210 53.001,261.299 53.065 C 262.189 53.118,263.346 53.207,263.872 53.263 C 264.781 53.359,264.836 53.343,265.023 52.932 C 265.252 52.429,265.306 52.416,265.780 52.748 C 266.094 52.968,266.190 52.968,266.609 52.749 C 267.233 52.424,267.998 52.434,268.483 52.774 C 268.848 53.029,268.909 53.027,269.378 52.750 C 270.003 52.381,272.847 52.490,273.256 52.899 C 273.799 53.442,274.542 53.394,275.667 52.745 C 276.211 52.431,277.787 52.435,278.394 52.751 C 278.973 53.053,279.946 53.078,280.041 52.794 C 280.135 52.510,282.744 52.510,283.027 52.794 C 283.273 53.039,284.500 53.072,284.500 52.833 C 284.500 52.521,285.413 52.656,285.628 53.000 C 285.903 53.441,286.072 53.421,286.565 52.890 C 286.961 52.462,286.991 52.456,287.399 52.723 C 287.631 52.875,288.034 53.000,288.294 53.000 C 288.836 53.000,289.167 53.266,289.167 53.700 C 289.167 54.284,289.957 54.077,290.089 53.458 C 290.311 52.420,291.183 52.155,292.073 52.855 C 292.377 53.094,292.724 53.199,293.137 53.175 C 294.796 53.081,296.127 53.101,296.530 53.226 C 296.885 53.335,297.039 53.292,297.276 53.015 C 297.598 52.639,299.047 52.506,299.250 52.833 C 299.307 52.925,299.832 53.000,300.417 53.000 C 301.002 53.000,301.527 52.925,301.583 52.833 C 301.723 52.607,302.722 52.622,302.953 52.853 C 303.089 52.989,303.238 52.969,303.513 52.776 C 303.904 52.503,305.246 52.554,305.575 52.855 C 305.793 53.055,306.957 53.038,307.083 52.833 C 307.217 52.617,308.116 52.617,308.250 52.833 C 308.393 53.064,309.557 53.043,309.795 52.805 C 310.040 52.560,313.480 52.580,313.728 52.828 C 313.954 53.054,317.833 53.060,317.833 52.833 C 317.833 52.521,318.746 52.656,318.961 53.000 C 319.237 53.441,319.405 53.421,319.898 52.890 C 320.297 52.460,320.323 52.455,320.738 52.727 C 321.122 52.979,321.206 52.982,321.548 52.758 C 322.010 52.455,324.200 52.516,324.594 52.842 C 324.786 53.002,324.894 53.006,325.040 52.860 C 325.269 52.631,326.033 52.604,326.258 52.816 C 326.411 52.961,328.318 53.179,329.475 53.185 C 329.782 53.187,330.163 53.071,330.322 52.927 C 330.648 52.632,332.413 52.558,332.583 52.833 C 332.717 53.049,333.883 53.050,334.099 52.834 C 334.549 52.384,337.312 52.428,337.742 52.892 C 338.232 53.420,338.429 53.443,338.705 53.000 C 339.001 52.527,340.148 52.537,340.558 53.015 C 340.882 53.393,341.518 53.350,342.000 52.916 C 342.333 52.616,345.754 52.521,346.037 52.804 C 346.310 53.077,347.270 53.049,347.718 52.756 C 348.092 52.511,348.833 52.575,348.833 52.853 C 348.833 52.934,349.040 53.000,349.292 53.001 C 349.544 53.001,350.035 53.081,350.384 53.178 C 350.919 53.327,351.130 53.300,351.729 53.010 C 352.491 52.641,353.000 52.568,353.000 52.827 C 353.000 53.276,353.653 53.330,354.097 52.918 L 354.547 52.502 354.932 52.918 C 355.404 53.427,355.382 53.427,355.934 52.915 C 356.353 52.526,356.414 52.514,356.771 52.748 C 357.196 53.027,360.167 53.118,360.167 52.853 C 360.167 52.575,360.908 52.511,361.282 52.756 C 361.692 53.025,362.676 53.084,362.925 52.854 C 363.223 52.580,364.459 52.527,364.923 52.768 C 365.500 53.067,366.010 53.062,366.606 52.751 C 367.215 52.434,368.011 52.431,368.426 52.745 C 368.830 53.050,372.492 53.108,372.785 52.815 C 373.153 52.447,375.225 52.558,375.634 52.967 C 376.087 53.420,376.272 53.427,376.539 53.000 C 376.771 52.628,377.593 52.540,377.714 52.875 C 377.775 53.042,377.860 53.042,378.143 52.875 C 378.865 52.449,380.167 52.965,380.167 53.678 C 380.167 53.910,380.283 54.000,380.583 54.000 C 380.833 54.000,381.000 53.905,381.000 53.762 C 381.000 53.299,381.476 52.999,381.933 53.173 C 382.374 53.340,383.000 53.138,383.000 52.827 C 383.000 52.604,383.606 52.626,383.985 52.863 C 384.239 53.021,384.355 53.002,384.595 52.762 C 384.912 52.445,387.224 52.511,387.575 52.848 C 387.835 53.097,388.837 53.020,389.129 52.728 C 389.438 52.419,391.726 52.492,392.055 52.822 C 392.318 53.085,393.319 53.038,393.607 52.750 C 393.913 52.444,396.180 52.499,396.570 52.822 C 396.770 52.989,396.892 52.977,397.197 52.764 C 397.404 52.619,397.793 52.500,398.061 52.500 C 398.329 52.500,398.875 52.294,399.274 52.042 L 399.999 51.583 400.000 26.186 L 400.000 0.789 399.641 0.478 C 399.383 0.254,399.020 0.166,398.349 0.165 C 397.836 0.165,396.919 0.117,396.310 0.060 L 395.203 -0.045 395.092 0.463 M324.494 8.424 C 324.307 8.649,324.310 8.717,324.511 8.843 C 324.844 9.054,325.083 8.945,325.083 8.583 C 325.083 8.176,324.770 8.091,324.494 8.424 M163.281 10.108 C 163.052 10.337,163.171 10.690,163.458 10.635 C 163.619 10.604,163.750 10.474,163.750 10.345 C 163.750 10.082,163.456 9.933,163.281 10.108 " stroke="none" fill="black" fill-rule="evenodd"></path></g></svg>