<svg version="1.1" id="Layer_1" xmlns="http://www.w3.org/2000/svg" xmlns:xlink="http://www.w3.org/1999/xlink" x="0px" y="0px"
	 width="100%" viewBox="0 0 480 608" enable-background="new 0 0 480 608" xml:space="preserve">
<path fill="none" opacity="1.000000" stroke="white" 
	d="
M173.040588,36.207153 
	C172.636337,32.516785 173.995377,29.793400 176.208405,27.400396 
	C176.762100,26.801689 177.697906,25.789804 178.105362,25.937946 
	C183.773285,27.998682 189.453384,23.160275 195.220398,26.243591 
	C198.973175,28.250015 199.870987,31.378981 199.658142,34.907349 
	C199.521088,37.179279 199.689346,38.950245 201.712296,39.991646 
	C206.273117,42.339527 209.879486,46.315624 215.112045,47.557693 
	C217.445770,48.111660 219.520782,50.038574 222.025482,47.841961 
	C222.823883,47.141762 223.837341,47.902809 224.725296,48.464142 
	C230.458740,52.088581 236.728989,53.940868 243.528458,53.890770 
	C247.212311,53.863628 250.496445,54.263767 253.794235,56.674812 
	C257.511780,59.392731 262.053314,60.269352 266.184814,56.562523 
	C267.889343,55.033184 270.230499,54.305485 272.272614,54.937820 
	C281.420929,57.770573 288.988098,52.032608 297.282532,50.425869 
	C299.701263,49.957329 301.831604,49.202843 304.365601,49.732121 
	C311.309570,51.182503 313.891479,49.878948 316.961823,43.567406 
	C320.231903,44.863655 323.410248,46.433975 327.238312,44.488277 
	C329.294037,43.443424 331.420471,47.884876 333.480713,46.421188 
	C338.958374,42.529556 342.796356,49.204441 347.946838,48.181316 
	C349.643616,47.844261 352.644073,50.252777 353.693665,53.085743 
	C355.300934,57.423988 358.004822,61.356937 358.425140,66.132973 
	C358.702545,69.285034 360.817078,69.713013 363.639343,68.629005 
	C363.929504,72.563477 361.376495,75.934074 363.660706,78.864388 
	C366.002869,81.868980 367.119263,85.852432 369.480347,88.381371 
	C374.079712,93.307709 374.743683,99.404640 376.132477,105.180840 
	C377.389008,110.406906 377.882050,116.012291 379.288849,121.110779 
	C380.215485,124.469238 383.225342,127.690628 383.939178,131.530548 
	C384.548370,134.807388 384.907776,138.105804 386.594879,141.062973 
	C390.017273,147.061783 395.705872,151.599731 397.810455,158.457443 
	C397.946472,158.900528 398.352814,159.500198 398.737610,159.592484 
	C409.544281,162.184006 407.881531,173.094864 412.316132,179.921509 
	C412.936310,180.876190 413.111176,182.721207 413.828003,182.915558 
	C418.871155,184.282944 417.986816,188.427628 418.754547,192.061661 
	C419.701965,196.545944 417.180664,199.073792 414.312225,201.342896 
	C410.845703,204.085098 409.550262,208.001114 409.472778,211.793335 
	C409.331451,218.708649 404.639435,222.007507 399.806335,224.490891 
	C389.774597,229.645508 383.992065,238.516968 378.188019,247.380951 
	C376.236725,250.360931 375.658234,254.217377 376.916504,257.988159 
	C377.839355,260.753723 377.019135,263.266510 375.247498,265.456177 
	C373.362183,267.786224 371.363800,270.024414 369.442688,272.325989 
	C363.609467,279.314240 364.706818,289.793365 371.558105,295.728668 
	C374.090546,297.922516 375.059906,301.250122 375.236450,304.619476 
	C375.323761,306.286163 374.914520,308.170837 376.165222,309.399475 
	C380.309723,313.470703 380.850891,318.104858 379.451080,323.545288 
	C378.776611,326.166626 378.837494,329.187073 381.720642,331.177795 
	C382.385193,331.636658 382.818665,332.971741 382.750427,333.856659 
	C382.451538,337.730743 383.399200,340.727448 386.453735,343.585022 
	C389.465424,346.402466 389.058197,355.376312 386.380280,358.797241 
	C381.857086,364.575378 379.888123,370.667084 381.297577,378.238220 
	C382.523285,384.822388 380.769562,391.576447 380.285248,398.235291 
	C379.960541,402.700226 378.278717,405.389587 376.103943,408.626099 
	C374.604218,410.857971 374.869537,413.901062 375.610291,416.425568 
	C377.047913,421.325287 375.625671,425.226074 372.219177,428.615631 
	C369.706940,431.115448 367.808472,434.004059 366.074738,437.067261 
	C361.277557,445.543121 353.856628,451.633240 346.748993,457.987061 
	C342.131714,462.114655 340.561188,467.681854 339.162323,473.373993 
	C336.978943,482.258423 333.189453,490.325897 327.869781,497.849701 
	C324.154297,503.104614 321.322968,509.006165 318.320862,514.736328 
	C316.362610,518.474121 314.221924,521.924255 310.739502,524.479492 
	C307.805756,526.632080 306.756653,530.128845 305.217621,533.228271 
	C301.412140,540.892029 299.106232,549.121155 296.311310,557.166565 
	C294.935333,561.127380 292.827209,564.743225 290.393341,568.123230 
	C288.981232,570.084229 287.549622,572.328918 287.737091,574.461609 
	C288.359344,581.541809 283.031219,584.165771 278.707947,587.598022 
	C276.650848,589.231140 274.705536,589.374451 272.500153,587.365845 
	C268.783936,583.981201 264.474976,581.487854 259.554138,580.130371 
	C258.473633,579.832336 257.008698,579.315918 256.594208,578.471375 
	C253.378830,571.919861 246.578064,568.343445 243.194870,561.881775 
	C240.975510,557.642883 240.667679,552.868408 239.975815,548.552246 
	C239.250854,544.029541 237.419815,540.406677 235.438416,536.732605 
	C233.864120,533.813416 232.973190,531.019226 233.350372,527.763306 
	C233.684021,524.883240 232.438904,522.240784 231.992645,519.476501 
	C231.466888,516.220032 232.193832,512.808655 231.986008,509.820862 
	C231.532883,503.306458 235.856781,495.961700 229.558609,490.151093 
	C228.352448,489.038269 228.621277,487.373322 228.760437,485.876770 
	C229.490189,478.028259 228.525284,470.850769 224.659149,463.484711 
	C221.847305,458.127319 218.755554,453.457306 214.942764,448.817017 
	C209.886627,442.663544 207.646805,434.754883 204.817352,427.342072 
	C203.917664,424.984955 203.081390,423.148682 200.574844,422.326263 
	C197.322006,421.259003 195.583252,418.805450 194.318741,415.692596 
	C190.679413,406.733612 186.728790,398.266846 177.155731,393.492584 
	C170.541672,390.194061 170.656052,388.124695 173.114151,380.898163 
	C176.064331,372.225037 172.841370,364.492218 168.482910,357.295929 
	C163.484619,349.043274 159.351486,340.538696 156.237335,331.347961 
	C153.906464,324.468994 148.557419,319.016479 144.009918,313.344971 
	C140.074219,308.436462 135.371048,304.165802 133.375092,297.882843 
	C132.483795,295.077148 129.864777,293.540192 127.580467,291.851349 
	C125.919907,290.623657 124.013931,289.001190 125.646461,286.942078 
	C128.283661,283.615784 127.146271,280.554626 125.335953,277.822479 
	C123.025665,274.335815 122.435959,270.816711 122.348900,266.680939 
	C122.229362,261.002655 117.361252,256.806213 116.368744,251.103683 
	C115.687790,247.191254 115.640045,242.751541 112.044441,239.792450 
	C111.677872,239.490753 111.526184,238.354828 111.793648,237.943054 
	C115.062424,232.910675 111.899460,229.715805 108.868881,226.163345 
	C106.183044,223.015015 104.580482,219.622498 104.976959,214.833633 
	C105.281715,211.152466 105.314331,206.277130 100.662361,203.642410 
	C94.329033,200.055481 92.842903,192.969955 89.503838,187.227859 
	C88.760956,185.950317 88.077866,184.296448 86.908638,183.664841 
	C80.261032,180.074020 79.093414,172.437057 74.553291,167.299911 
	C72.698700,165.201447 72.221016,162.715134 75.396843,160.599121 
	C78.145088,158.768005 77.492401,155.756836 76.200729,153.363815 
	C71.466202,144.592377 74.447090,135.822250 75.934052,127.047211 
	C76.060272,126.302361 76.633820,125.372566 77.271805,125.016495 
	C82.304749,122.207535 86.282677,118.792862 86.115234,112.313316 
	C86.083855,111.099327 87.510078,110.082306 88.651329,110.405098 
	C95.828209,112.435013 98.401428,105.395020 103.304466,102.995392 
	C104.732018,102.296715 105.895042,100.249390 106.383347,98.586533 
	C108.057289,92.886070 112.012520,88.628387 114.831375,83.725525 
	C117.179359,79.641640 121.529236,75.738441 120.824425,70.012871 
	C120.584702,68.065483 122.198914,67.900131 123.769745,67.455963 
	C132.379044,65.021591 139.680374,60.794872 143.379700,52.058056 
	C144.373978,49.709888 147.035431,48.684460 147.638336,46.177418 
	C157.504349,49.180405 164.685410,45.536751 173.040588,36.207153 
z"/>
</svg>